<svg width="954" height="778" viewBox="0 0 954 778" fill="none" xmlns="http://www.w3.org/2000/svg">
<path fill-rule="evenodd" clip-rule="evenodd" d="M479.011 64.7313C588.851 67.5493 699.722 -13.2861 796.901 26.6631C893.764 66.4825 909.809 168.957 934.583 252.012C957.414 328.555 964.05 407.278 932.711 481.975C901.407 556.59 837.245 617.801 759.962 668.224C677.642 721.934 586.421 778.74 479.011 777.993C371.922 777.248 269.768 728.685 201.685 664.34C141.267 607.238 169.534 523.202 136.141 453.945C100.155 379.31 -1.66354 325.797 0.0206458 246.09C1.91123 156.614 42.1374 49.096 145.522 9.9517C250.25 -29.7012 362.613 61.7451 479.011 64.7313Z" fill="url(#paint0_linear)"/>
<path fill-rule="evenodd" clip-rule="evenodd" d="M867.414 239.334C866.881 238.946 865.616 238.809 865.028 238.692C862.58 238.21 860.059 238 857.564 238C849.871 238.012 842.052 238.767 834.487 240.074C829.683 240.903 823.876 243.696 819.098 242.179C810.774 239.537 802.361 239.667 794.463 243.439C787.242 246.888 781.761 253.439 778.562 260.517C778.079 261.586 776.121 265.519 775.567 268.17C775.33 268.712 775.102 269.257 774.897 269.811C774.315 271.384 773.792 272.984 773.307 274.588C773.099 275.272 772.578 276.782 773.197 277.074C772.208 278.901 771.331 280.783 770.601 282.726C768.476 288.378 766.152 294.578 765.405 300.568C765.129 302.786 765.117 305.017 765.374 307.239C765.501 308.338 765.45 310.546 766.194 311.382C767.775 313.154 768.586 310.673 768.408 309.491C767.048 300.485 769.675 292.027 772.788 283.561C774.802 278.087 778.109 273.078 781.815 268.543C784.814 264.871 788.031 261.98 792.142 259.546C797.17 256.569 802.546 254.163 807.871 251.749C811.374 250.161 814.881 248.615 818.481 247.247C819.282 246.942 820.541 246.161 821.429 246.158C823.306 246.152 825.967 247.537 827.78 248.052C833.744 249.748 839.783 251.919 845.947 252.785C849.901 253.341 853.605 252.715 857.302 251.398C857.68 251.264 858.314 250.918 859.09 250.424C861.835 249.368 864.433 248.039 866.694 246.121C867.996 245.017 869.179 243.589 870.257 242.282C870.579 241.892 870.721 241.444 870.726 241.018C870.97 240.891 871.132 240.741 871.169 240.567C871.438 239.281 868.985 239.258 867.414 239.334Z" fill="#89C5CC"/>
<path fill-rule="evenodd" clip-rule="evenodd" d="M242.463 346.541C240.954 347.763 239.473 349.011 238.029 350.31C236.928 351.3 234.981 352.485 234.585 353.985C234.175 355.544 235.471 357.003 236.496 357.945C241.913 362.929 248.013 366.298 255.519 366.859C267.077 367.722 277.135 364.77 287.164 358.963C294.208 354.883 298.874 348.849 299.893 340.701C308.282 344.187 316.395 348.993 323.29 354.891C326.692 357.801 329.622 361.025 332.332 364.599C334.068 366.889 335.747 369.215 337.305 371.631C337.982 372.68 338.671 374.542 339.789 375.146C341.102 375.856 342.689 374.743 342.624 373.284C342.569 372.069 341.258 370.66 340.644 369.667C339.626 368.018 338.592 366.379 337.503 364.776C335.741 362.179 333.92 359.62 331.934 357.19C327.47 351.73 321.791 347.221 315.904 343.375C304.61 335.997 292.214 331.349 278.472 330.955C270.023 330.713 262.914 333.6 255.688 337.911C251.189 340.595 246.545 343.235 242.463 346.541Z" fill="#DDE3E9"/>
<path fill-rule="evenodd" clip-rule="evenodd" d="M352.073 310.855C343.267 301.787 334.431 292.832 324.593 284.846C318.795 280.141 312.685 275.862 306.701 271.401C307.391 272.006 308.068 272.628 308.729 273.266C306.861 271.998 304.416 271.281 302.436 270.107C300.227 268.798 298.115 267.3 296.044 265.791C292.001 262.845 288.019 259.843 283.863 257.051C279.233 253.94 274.434 251.066 269.725 248.072C265.729 245.532 261.683 242.751 257.408 240.674C255.078 239.542 252.742 238.201 250.402 237.02C249.619 236.625 241.674 231.608 241.694 231.592C242.133 231.262 246.131 233.14 246.75 233.393C248.556 234.131 250.283 235.013 252.02 235.893C251.067 234.013 250.312 232.037 249.902 229.958C249.775 229.316 248.758 224.644 249.278 224.252C249.538 224.056 252.073 232.416 252.203 233.219C252.308 233.872 252.293 234.812 252.507 235.43C252.852 236.429 252.834 236.127 253.594 236.69C254.987 237.721 256.836 238.365 258.344 239.226C259.157 239.68 261.674 241.48 263.19 241.993C267.778 244.221 272.428 247.649 276.787 250.495C275.643 248.345 274.772 246.097 274.137 243.741C273.986 243.182 272.357 238.165 272.752 237.867C273.197 237.531 276.301 245.195 276.485 245.92C276.827 247.268 276.898 248.767 277.326 250.079C277.795 251.518 279.26 252.028 280.58 252.867C285.437 255.953 290.128 259.232 294.74 262.662C299.773 253.711 293.97 242.903 289.08 235.393C285.554 229.98 280.809 225.34 275.797 221.289C269.11 215.882 261.459 211.563 253.817 207.612C244.912 203.009 235.288 200.156 225.283 198.839C220.05 198.149 214.696 198.169 209.41 198.39C206.828 198.497 204.35 198.839 201.875 199.682C200.76 200.062 199.682 200.541 198.632 201.077C197.834 201.484 195.903 201.914 195.444 202.521C191.667 207.438 189.734 212.337 190.029 218.515C190.308 224.363 192.155 230.214 194.662 235.431C197.454 241.239 201.044 246.511 205.739 250.936C209.322 254.312 213.327 257.25 217.305 260.15C231.457 270.463 249.398 279.433 267.726 277.128C273.659 276.383 279.302 274.308 284.575 271.488C285.818 270.824 287.053 270.152 288.226 269.368C289.017 268.839 291.131 266.456 291.926 266.369C293.017 266.251 295.365 268.468 296.388 269.143C304.162 274.275 311.732 279.685 319.143 285.313C327.029 291.301 334.527 297.697 341.805 304.393C344.9 307.241 347.976 310.096 350.981 313.04C351.681 313.725 353.392 316.247 354.661 316.361C355.463 316.434 356.004 315.748 355.89 315.006C355.691 313.715 352.975 311.784 352.073 310.855Z" fill="#C1DEE2"/>
<path fill-rule="evenodd" clip-rule="evenodd" d="M858.17 275.66C854.76 274.915 850.993 274.972 847.519 275.033C828.885 275.287 810.587 284.109 798.679 298.205C788.541 310.205 785.753 325.125 783.75 340.207C783.552 341.704 783.467 343.192 783.355 344.693C783.331 345.015 783.295 345.302 783.256 345.573C782.469 346.277 782.055 347.098 782.522 348C780.787 351.797 779.319 355.69 778.059 359.706C774.352 371.526 770.582 383.571 772.904 396C773.447 389.16 774.589 382.166 775.954 375.438C776.032 375.052 776.117 374.669 776.205 374.287C776.215 374.247 776.223 374.206 776.232 374.166C776.715 372.106 777.343 370.108 778.107 368.141C778.115 368.119 778.123 368.098 778.131 368.077C778.232 367.818 778.339 367.56 778.445 367.303C778.664 366.77 778.889 366.238 779.127 365.709C779.208 365.528 779.285 365.346 779.36 365.163C780.472 362.437 780.941 359.365 781.938 356.545C782.176 355.904 782.425 355.265 782.686 354.629C782.702 354.592 782.717 354.555 782.733 354.518C783.439 352.807 784.218 351.118 785.043 349.446C785.491 349.109 785.73 348.274 786.117 347.515C786.196 347.365 786.821 346.368 787.007 345.793C787.493 344.854 787.976 343.915 788.465 342.977C788.451 342.983 788.436 342.988 788.421 342.994C788.91 342.093 789.401 341.197 789.888 340.304C789.995 340.108 790.103 339.912 790.211 339.715C790.386 339.402 790.561 339.089 790.735 338.777C792.367 335.856 794.098 332.994 795.895 330.167C796.537 329.158 798.069 327.711 798.363 326.579C798.374 326.536 798.376 326.497 798.383 326.457C802.283 320.979 806.772 315.927 812.157 311.924C811.506 312.628 810.122 315.015 809.757 315.488C808.637 316.935 807.422 318.282 806.203 319.646C804.018 322.089 801.886 324.609 799.991 327.274C796.525 332.148 793.536 337.277 790.709 342.51C790.683 342.54 790.653 342.569 790.628 342.601C789.207 344.352 788.313 346.998 787.291 349.001C791.337 347.127 795.812 345.906 799.964 344.242C804.106 342.583 808.134 340.735 812.024 338.566C817.193 335.682 822.556 332.427 827.44 328.743C833.037 325.271 837.741 320.492 841.893 315.477C846.805 309.543 851.307 303.558 854.091 296.353C855.459 292.813 856.535 289.121 857.173 285.386C857.201 285.224 857.236 285.047 857.275 284.864C857.928 283.574 858.511 282.255 859.001 280.906C859.778 278.766 861.615 276.412 858.17 275.66Z" fill="#69A1AC"/>
<path fill-rule="evenodd" clip-rule="evenodd" d="M280.198 300.729C279.13 299.572 277.93 298.528 276.52 297.783C276.164 297.595 273.51 296.335 273.338 296.611C272.935 297.255 279.877 300.359 280.198 300.729ZM292.78 293C292.771 293.049 293.691 294.61 293.942 295.09C294.475 296.111 294.967 297.151 295.43 298.194C294.745 296.353 294.04 294.645 292.78 293ZM228.435 305.709C227.548 305.994 226.483 304.869 227.632 304.592C228.563 304.37 228.517 304.318 228.935 303.568C229.274 302.96 229.483 302.218 229.78 301.58C230.411 300.226 231.127 298.934 232.006 297.724C233.89 295.13 236.185 292.895 238.759 291.011C243.251 287.725 248.287 284.72 253.63 283.211C262.125 280.811 271.794 280.663 280.303 282.327C285.573 283.357 290.388 285.149 293.887 289.392C295.636 291.512 297.009 293.996 297.609 296.731C297.766 297.446 297.736 298.241 297.932 298.941C298.234 300.018 298.101 299.731 299.36 299.94C300.734 300.169 302.107 300.402 303.48 300.64C307.075 301.262 310.691 301.922 314.194 302.931C315.347 303.263 316.474 303.669 317.576 304.14C318.409 304.496 321.726 305.615 322.129 306.697C322.8 308.498 320.552 307.682 319.853 307.289C319.241 306.946 318.613 306.625 317.976 306.33C316.371 305.588 314.699 305.013 312.989 304.556C311.141 304.062 309.256 303.693 307.377 303.323C305.626 302.979 303.868 302.666 302.107 302.366C301.129 302.2 300.151 302.038 299.172 301.877C298.837 301.821 298.248 301.532 298.292 301.967C296.234 301.57 294.009 301.627 291.913 301.518C289.346 301.384 286.769 301.274 284.193 301.354C282.335 301.412 280.476 301.534 278.627 301.784C277.547 301.93 276.484 302.143 275.424 302.413C274.842 302.562 272.547 302.877 272.229 303.384C272.366 303.166 274.899 303.378 275.221 303.365C276.511 303.317 277.791 303.189 279.076 303.046C281.461 302.779 283.846 302.64 286.238 302.66C286.229 303.08 284.595 303.828 284.196 304.106C283.302 304.731 282.445 305.411 281.646 306.158C280.239 307.473 278.553 309.102 277.58 310.661C277.867 310.201 279.282 309.604 279.784 309.253C280.589 308.691 281.378 308.091 282.124 307.45C282.812 306.858 283.455 306.218 284.087 305.565C284.719 304.912 285.576 303.553 286.407 303.118C286.457 303.091 286.819 303.377 287.024 303.28C287.232 303.182 287.49 302.692 287.542 302.672C288.315 302.374 289.783 302.745 290.596 302.783C292.703 302.88 294.809 303.007 296.914 303.123C297.567 303.159 298.121 303.01 298.368 303.491C298.63 304.005 298.149 305.354 298.012 305.913C297.504 307.989 296.603 309.85 295.183 311.459C292.525 314.472 289.246 316.48 285.543 317.824C271.358 322.97 256.268 325.031 242.088 319.678C236.217 317.461 227.376 313.501 228.435 305.709Z" fill="#89C5CC"/>
<g opacity="0.6">
<path opacity="0.6" fill-rule="evenodd" clip-rule="evenodd" d="M877.901 548.152C887.551 613.476 653.527 656.085 452.098 626.349C250.668 596.614 158.261 480.493 254.38 418.62C350.5 356.746 868.251 482.828 877.901 548.152Z" fill="#DDE3E9"/>
</g>
<path d="M466.19 120H323.19C318.771 120 315.19 123.582 315.19 128V414C315.19 418.418 318.771 422 323.19 422H466.19C470.608 422 474.19 418.418 474.19 414V128C474.19 123.582 470.608 120 466.19 120Z" fill="#F2F2F2"/>
<path fill-rule="evenodd" clip-rule="evenodd" d="M394.19 403C402.474 403 409.19 396.284 409.19 388C409.19 379.716 402.474 373 394.19 373C385.906 373 379.19 379.716 379.19 388C379.19 396.284 385.906 403 394.19 403Z" fill="white"/>
<path fill-rule="evenodd" clip-rule="evenodd" d="M381.19 140C382.295 140 383.19 139.105 383.19 138C383.19 136.895 382.295 136 381.19 136C380.085 136 379.19 136.895 379.19 138C379.19 139.105 380.085 140 381.19 140Z" fill="white"/>
<path d="M407.19 136H390.19C389.085 136 388.19 136.895 388.19 138C388.19 139.105 389.085 140 390.19 140H407.19C408.294 140 409.19 139.105 409.19 138C409.19 136.895 408.294 136 407.19 136Z" fill="white"/>
<path d="M456.19 148H333.19C330.98 148 329.19 149.791 329.19 152V198C329.19 200.209 330.98 202 333.19 202H456.19C458.399 202 460.19 200.209 460.19 198V152C460.19 149.791 458.399 148 456.19 148Z" fill="white"/>
<path d="M438.19 164.2H371.19C369.533 164.2 368.19 165.543 368.19 167.2V169.3C368.19 170.957 369.533 172.3 371.19 172.3H438.19C439.846 172.3 441.19 170.957 441.19 169.3V167.2C441.19 165.543 439.846 164.2 438.19 164.2Z" fill="#DDE3E9"/>
<path d="M414.19 177.7H371.19C369.533 177.7 368.19 179.043 368.19 180.7V182.8C368.19 184.457 369.533 185.8 371.19 185.8H414.19C415.846 185.8 417.19 184.457 417.19 182.8V180.7C417.19 179.043 415.846 177.7 414.19 177.7Z" fill="#DDE3E9"/>
<path fill-rule="evenodd" clip-rule="evenodd" d="M350.19 187C356.817 187 362.19 181.627 362.19 175C362.19 168.373 356.817 163 350.19 163C343.563 163 338.19 168.373 338.19 175C338.19 181.627 343.563 187 350.19 187Z" fill="#C5CFD6"/>
<path d="M456.19 210H333.19C330.98 210 329.19 211.791 329.19 214V248C329.19 250.209 330.98 252 333.19 252H456.19C458.399 252 460.19 250.209 460.19 248V214C460.19 211.791 458.399 210 456.19 210Z" fill="white"/>
<path d="M438.19 222.6H371.19C369.533 222.6 368.19 223.943 368.19 225.6V225.9C368.19 227.557 369.533 228.9 371.19 228.9H438.19C439.846 228.9 441.19 227.557 441.19 225.9V225.6C441.19 223.943 439.846 222.6 438.19 222.6Z" fill="#DDE3E9"/>
<path d="M414.19 233.1H371.19C369.533 233.1 368.19 234.443 368.19 236.1V236.4C368.19 238.057 369.533 239.4 371.19 239.4H414.19C415.846 239.4 417.19 238.057 417.19 236.4V236.1C417.19 234.443 415.846 233.1 414.19 233.1Z" fill="#DDE3E9"/>
<path fill-rule="evenodd" clip-rule="evenodd" d="M350.19 243C356.817 243 362.19 237.627 362.19 231C362.19 224.373 356.817 219 350.19 219C343.563 219 338.19 224.373 338.19 231C338.19 237.627 343.563 243 350.19 243Z" fill="#C5CFD6"/>
<path d="M456.19 260H333.19C330.98 260 329.19 261.791 329.19 264V298C329.19 300.209 330.98 302 333.19 302H456.19C458.399 302 460.19 300.209 460.19 298V264C460.19 261.791 458.399 260 456.19 260Z" fill="white"/>
<path d="M438.19 272.6H371.19C369.533 272.6 368.19 273.943 368.19 275.6V275.9C368.19 277.557 369.533 278.9 371.19 278.9H438.19C439.846 278.9 441.19 277.557 441.19 275.9V275.6C441.19 273.943 439.846 272.6 438.19 272.6Z" fill="#DDE3E9"/>
<path d="M414.19 283.1H371.19C369.533 283.1 368.19 284.443 368.19 286.1V286.4C368.19 288.057 369.533 289.4 371.19 289.4H414.19C415.846 289.4 417.19 288.057 417.19 286.4V286.1C417.19 284.443 415.846 283.1 414.19 283.1Z" fill="#DDE3E9"/>
<path fill-rule="evenodd" clip-rule="evenodd" d="M350.19 293C356.817 293 362.19 287.627 362.19 281C362.19 274.373 356.817 269 350.19 269C343.563 269 338.19 274.373 338.19 281C338.19 287.627 343.563 293 350.19 293Z" fill="#AFB9C5"/>
<path d="M456.19 310H333.19C330.98 310 329.19 311.791 329.19 314V348C329.19 350.209 330.98 352 333.19 352H456.19C458.399 352 460.19 350.209 460.19 348V314C460.19 311.791 458.399 310 456.19 310Z" fill="white"/>
<path d="M438.19 322.6H371.19C369.533 322.6 368.19 323.943 368.19 325.6V325.9C368.19 327.557 369.533 328.9 371.19 328.9H438.19C439.846 328.9 441.19 327.557 441.19 325.9V325.6C441.19 323.943 439.846 322.6 438.19 322.6Z" fill="#DDE3E9"/>
<path d="M414.19 333.1H371.19C369.533 333.1 368.19 334.443 368.19 336.1V336.4C368.19 338.057 369.533 339.4 371.19 339.4H414.19C415.846 339.4 417.19 338.057 417.19 336.4V336.1C417.19 334.443 415.846 333.1 414.19 333.1Z" fill="#DDE3E9"/>
<path fill-rule="evenodd" clip-rule="evenodd" d="M350.19 343C356.817 343 362.19 337.627 362.19 331C362.19 324.373 356.817 319 350.19 319C343.563 319 338.19 324.373 338.19 331C338.19 337.627 343.563 343 350.19 343Z" fill="#C5CFD6"/>
<path fill-rule="evenodd" clip-rule="evenodd" d="M345.33 364C344.005 364 342.684 364.027 341.361 364.095C340.352 364.148 338.811 363.939 337.958 364.568C337.071 365.221 337.132 366.557 337.271 367.501C338.003 372.493 339.79 376.919 343.529 380.456C349.286 385.901 355.885 388.668 363.694 389.9C369.18 390.766 374.244 389.564 378.282 385.663C381.233 391.139 383.471 397.199 384.594 403.315C385.148 406.333 385.317 409.315 385.22 412.388C385.157 414.356 385.049 416.32 384.838 418.279C384.746 419.13 384.312 420.418 384.645 421.223C385.036 422.167 386.355 422.259 386.947 421.453C387.44 420.783 387.35 419.466 387.451 418.673C387.619 417.355 387.774 416.036 387.885 414.712C388.066 412.569 388.199 410.42 388.19 408.268C388.167 403.435 387.092 398.583 385.622 393.995C382.802 385.192 378.227 377.369 371.111 371.231C366.735 367.457 361.727 365.929 356.046 365.108C352.508 364.597 348.913 364 345.33 364Z" fill="#89C5CC"/>
<path fill-rule="evenodd" clip-rule="evenodd" d="M365.761 399C351.462 399 341.832 410.524 337.279 422.502C335.562 427.016 335.16 431.974 334.498 436.714C334.286 438.236 334.365 440.554 333.747 441.909C333.523 442.401 333.009 442.577 333.255 443.247C333.404 443.652 333.695 443.901 334.134 443.981C335.033 444.147 336.305 443.167 337.076 442.781C343.472 439.573 347.674 434.613 351.102 428.545C353.228 424.784 355.384 420.879 356.646 416.75C357.417 414.227 357.866 411.571 358.13 408.954C358.234 407.923 358.334 406.868 358.328 405.832C358.322 404.803 357.843 404.259 357.499 403.364C362.27 401.558 367.656 401.066 372.489 402.937C376.959 404.668 380.672 408.013 382.751 412.216C383.291 413.308 383.708 414.46 384.011 415.636C384.21 416.406 384.219 417.404 384.588 418.1C385.48 419.788 387.358 418.66 387.178 417.089C386.675 412.708 384.169 408.309 380.965 405.263C376.924 401.421 371.448 399 365.761 399Z" fill="#89C5CC"/>
<path d="M532.19 146H389.19C384.771 146 381.19 149.582 381.19 154V440C381.19 444.418 384.771 448 389.19 448H532.19C536.608 448 540.19 444.418 540.19 440V154C540.19 149.582 536.608 146 532.19 146Z" fill="#DDE3E9"/>
<path fill-rule="evenodd" clip-rule="evenodd" d="M460.19 429C468.474 429 475.19 422.284 475.19 414C475.19 405.716 468.474 399 460.19 399C451.906 399 445.19 405.716 445.19 414C445.19 422.284 451.906 429 460.19 429Z" fill="white"/>
<path fill-rule="evenodd" clip-rule="evenodd" d="M447.19 166C448.295 166 449.19 165.105 449.19 164C449.19 162.895 448.295 162 447.19 162C446.085 162 445.19 162.895 445.19 164C445.19 165.105 446.085 166 447.19 166Z" fill="white"/>
<path d="M473.19 162H456.19C455.085 162 454.19 162.895 454.19 164C454.19 165.105 455.085 166 456.19 166H473.19C474.294 166 475.19 165.105 475.19 164C475.19 162.895 474.294 162 473.19 162Z" fill="white"/>
<path d="M522.19 174H399.19C396.98 174 395.19 175.791 395.19 178V224C395.19 226.209 396.98 228 399.19 228H522.19C524.399 228 526.19 226.209 526.19 224V178C526.19 175.791 524.399 174 522.19 174Z" fill="white"/>
<path d="M474.19 190.2H407.19C405.533 190.2 404.19 191.543 404.19 193.2V195.3C404.19 196.957 405.533 198.3 407.19 198.3H474.19C475.846 198.3 477.19 196.957 477.19 195.3V193.2C477.19 191.543 475.846 190.2 474.19 190.2Z" fill="#DDE3E9"/>
<path d="M450.19 203.7H407.19C405.533 203.7 404.19 205.043 404.19 206.7V208.8C404.19 210.457 405.533 211.8 407.19 211.8H450.19C451.846 211.8 453.19 210.457 453.19 208.8V206.7C453.19 205.043 451.846 203.7 450.19 203.7Z" fill="#DDE3E9"/>
<path fill-rule="evenodd" clip-rule="evenodd" d="M512.19 208C516.056 208 519.19 204.866 519.19 201C519.19 197.134 516.056 194 512.19 194C508.324 194 505.19 197.134 505.19 201C505.19 204.866 508.324 208 512.19 208Z" fill="#DDE3E9"/>
<path fill-rule="evenodd" clip-rule="evenodd" d="M512.19 204C513.847 204 515.19 202.657 515.19 201C515.19 199.343 513.847 198 512.19 198C510.533 198 509.19 199.343 509.19 201C509.19 202.657 510.533 204 512.19 204Z" fill="#F2F2F2"/>
<path d="M522.19 236H399.19C396.98 236 395.19 237.791 395.19 240V274C395.19 276.209 396.98 278 399.19 278H522.19C524.399 278 526.19 276.209 526.19 274V240C526.19 237.791 524.399 236 522.19 236Z" fill="white"/>
<path d="M504.19 248.6H437.19C435.533 248.6 434.19 249.943 434.19 251.6V251.9C434.19 253.557 435.533 254.9 437.19 254.9H504.19C505.846 254.9 507.19 253.557 507.19 251.9V251.6C507.19 249.943 505.846 248.6 504.19 248.6Z" fill="#DDE3E9"/>
<path d="M480.19 259.1H437.19C435.533 259.1 434.19 260.443 434.19 262.1V262.4C434.19 264.057 435.533 265.4 437.19 265.4H480.19C481.846 265.4 483.19 264.057 483.19 262.4V262.1C483.19 260.443 481.846 259.1 480.19 259.1Z" fill="#DDE3E9"/>
<path fill-rule="evenodd" clip-rule="evenodd" d="M416.19 269C422.817 269 428.19 263.627 428.19 257C428.19 250.373 422.817 245 416.19 245C409.563 245 404.19 250.373 404.19 257C404.19 263.627 409.563 269 416.19 269Z" fill="#C5CFD6"/>
<path d="M522.19 286H399.19C396.98 286 395.19 287.791 395.19 290V324C395.19 326.209 396.98 328 399.19 328H522.19C524.399 328 526.19 326.209 526.19 324V290C526.19 287.791 524.399 286 522.19 286Z" fill="white"/>
<path d="M474.19 298.6H407.19C405.533 298.6 404.19 299.943 404.19 301.6V301.9C404.19 303.557 405.533 304.9 407.19 304.9H474.19C475.846 304.9 477.19 303.557 477.19 301.9V301.6C477.19 299.943 475.846 298.6 474.19 298.6Z" fill="#DDE3E9"/>
<path d="M450.19 309.1H407.19C405.533 309.1 404.19 310.443 404.19 312.1V312.4C404.19 314.057 405.533 315.4 407.19 315.4H450.19C451.846 315.4 453.19 314.057 453.19 312.4V312.1C453.19 310.443 451.846 309.1 450.19 309.1Z" fill="#AFB9C5"/>
<path fill-rule="evenodd" clip-rule="evenodd" d="M512.19 314C516.056 314 519.19 310.866 519.19 307C519.19 303.134 516.056 300 512.19 300C508.324 300 505.19 303.134 505.19 307C505.19 310.866 508.324 314 512.19 314Z" fill="#DDE3E9"/>
<path fill-rule="evenodd" clip-rule="evenodd" d="M512.19 310C513.847 310 515.19 308.657 515.19 307C515.19 305.343 513.847 304 512.19 304C510.533 304 509.19 305.343 509.19 307C509.19 308.657 510.533 310 512.19 310Z" fill="#F2F2F2"/>
<path d="M522.19 336H399.19C396.98 336 395.19 337.791 395.19 340V374C395.19 376.209 396.98 378 399.19 378H522.19C524.399 378 526.19 376.209 526.19 374V340C526.19 337.791 524.399 336 522.19 336Z" fill="white"/>
<path d="M504.19 348.6H437.19C435.533 348.6 434.19 349.943 434.19 351.6V351.9C434.19 353.557 435.533 354.9 437.19 354.9H504.19C505.846 354.9 507.19 353.557 507.19 351.9V351.6C507.19 349.943 505.846 348.6 504.19 348.6Z" fill="#DDE3E9"/>
<path d="M480.19 359.1H437.19C435.533 359.1 434.19 360.443 434.19 362.1V362.4C434.19 364.057 435.533 365.4 437.19 365.4H480.19C481.846 365.4 483.19 364.057 483.19 362.4V362.1C483.19 360.443 481.846 359.1 480.19 359.1Z" fill="#DDE3E9"/>
<path fill-rule="evenodd" clip-rule="evenodd" d="M416.19 369C422.817 369 428.19 363.627 428.19 357C428.19 350.373 422.817 345 416.19 345C409.563 345 404.19 350.373 404.19 357C404.19 363.627 409.563 369 416.19 369Z" fill="#C5CFD6"/>
<path d="M774.19 171H455.19C450.771 171 447.19 174.582 447.19 179V509C447.19 513.418 450.771 517 455.19 517H774.19C778.608 517 782.19 513.418 782.19 509V179C782.19 174.582 778.608 171 774.19 171Z" fill="#F2F2F2"/>
<path d="M758.19 214H704.19C699.771 214 696.19 217.582 696.19 222V287C696.19 291.418 699.771 295 704.19 295H758.19C762.608 295 766.19 291.418 766.19 287V222C766.19 217.582 762.608 214 758.19 214Z" fill="white"/>
<path fill-rule="evenodd" clip-rule="evenodd" d="M731.19 261C740.027 261 747.19 253.837 747.19 245C747.19 236.163 740.027 229 731.19 229C722.353 229 715.19 236.163 715.19 245C715.19 253.837 722.353 261 731.19 261Z" fill="#DDE3E9"/>
<path d="M753.19 265H709.19C707.533 265 706.19 266.343 706.19 268C706.19 269.657 707.533 271 709.19 271H753.19C754.846 271 756.19 269.657 756.19 268C756.19 266.343 754.846 265 753.19 265Z" fill="#DDE3E9"/>
<path d="M745.19 275H717.19C715.533 275 714.19 276.343 714.19 278C714.19 279.657 715.533 281 717.19 281H745.19C746.846 281 748.19 279.657 748.19 278C748.19 276.343 746.846 275 745.19 275Z" fill="#DDE3E9"/>
<path d="M447.19 179C447.19 174.582 450.772 171 455.19 171H774.19C778.608 171 782.19 174.582 782.19 179V198H447.19V179Z" fill="#C5CFD6"/>
<path fill-rule="evenodd" clip-rule="evenodd" d="M460.19 189C462.399 189 464.19 187.209 464.19 185C464.19 182.791 462.399 181 460.19 181C457.981 181 456.19 182.791 456.19 185C456.19 187.209 457.981 189 460.19 189Z" fill="#F2F2F2"/>
<path fill-rule="evenodd" clip-rule="evenodd" d="M472.19 189C474.399 189 476.19 187.209 476.19 185C476.19 182.791 474.399 181 472.19 181C469.981 181 468.19 182.791 468.19 185C468.19 187.209 469.981 189 472.19 189Z" fill="#F2F2F2"/>
<path fill-rule="evenodd" clip-rule="evenodd" d="M484.19 189C486.399 189 488.19 187.209 488.19 185C488.19 182.791 486.399 181 484.19 181C481.981 181 480.19 182.791 480.19 185C480.19 187.209 481.981 189 484.19 189Z" fill="#F2F2F2"/>
<path d="M758.19 303H704.19C699.771 303 696.19 306.582 696.19 311V489C696.19 493.418 699.771 497 704.19 497H758.19C762.608 497 766.19 493.418 766.19 489V311C766.19 306.582 762.608 303 758.19 303Z" fill="white"/>
<path d="M744.19 321H718.19C715.98 321 714.19 322.791 714.19 325V343C714.19 345.209 715.98 347 718.19 347H744.19C746.399 347 748.19 345.209 748.19 343V325C748.19 322.791 746.399 321 744.19 321Z" fill="#DDE3E9"/>
<path d="M744.19 355H718.19C715.98 355 714.19 356.791 714.19 359V376C714.19 378.209 715.98 380 718.19 380H744.19C746.399 380 748.19 378.209 748.19 376V359C748.19 356.791 746.399 355 744.19 355Z" fill="#AFB9C5"/>
<path d="M744.19 388H718.19C715.98 388 714.19 389.791 714.19 392V409C714.19 411.209 715.98 413 718.19 413H744.19C746.399 413 748.19 411.209 748.19 409V392C748.19 389.791 746.399 388 744.19 388Z" fill="#DDE3E9"/>
<path d="M744.19 454H718.19C715.98 454 714.19 455.791 714.19 458V475C714.19 477.209 715.98 479 718.19 479H744.19C746.399 479 748.19 477.209 748.19 475V458C748.19 455.791 746.399 454 744.19 454Z" fill="#DDE3E9"/>
<path d="M744.19 421H718.19C715.98 421 714.19 422.791 714.19 425V442C714.19 444.209 715.98 446 718.19 446H744.19C746.399 446 748.19 444.209 748.19 442V425C748.19 422.791 746.399 421 744.19 421Z" fill="#C5CFD6"/>
<path d="M684.19 215H467.19C464.98 215 463.19 216.791 463.19 219V258C463.19 260.209 464.98 262 467.19 262H684.19C686.399 262 688.19 260.209 688.19 258V219C688.19 216.791 686.399 215 684.19 215Z" fill="white"/>
<path d="M636.19 229.1H475.19C473.533 229.1 472.19 230.443 472.19 232.1V233.15C472.19 234.807 473.533 236.15 475.19 236.15H636.19C637.846 236.15 639.19 234.807 639.19 233.15V232.1C639.19 230.443 637.846 229.1 636.19 229.1Z" fill="#DDE3E9"/>
<path d="M581.286 240.85H475.19C473.533 240.85 472.19 242.193 472.19 243.85V244.9C472.19 246.557 473.533 247.9 475.19 247.9H581.286C582.942 247.9 584.286 246.557 584.286 244.9V243.85C584.286 242.193 582.942 240.85 581.286 240.85Z" fill="#DDE3E9"/>
<path fill-rule="evenodd" clip-rule="evenodd" d="M664.144 245.5C668.01 245.5 671.144 242.366 671.144 238.5C671.144 234.634 668.01 231.5 664.144 231.5C660.278 231.5 657.144 234.634 657.144 238.5C657.144 242.366 660.278 245.5 664.144 245.5Z" fill="#DDE3E9"/>
<path fill-rule="evenodd" clip-rule="evenodd" d="M664.144 241.5C665.801 241.5 667.144 240.157 667.144 238.5C667.144 236.843 665.801 235.5 664.144 235.5C662.487 235.5 661.144 236.843 661.144 238.5C661.144 240.157 662.487 241.5 664.144 241.5Z" fill="#F2F2F2"/>
<path d="M684.19 270H467.19C464.98 270 463.19 271.791 463.19 274V305C463.19 307.209 464.98 309 467.19 309H684.19C686.399 309 688.19 307.209 688.19 305V274C688.19 271.791 686.399 270 684.19 270Z" fill="white"/>
<path d="M636.265 281.7H475.115C473.499 281.7 472.19 283.01 472.19 284.625C472.19 286.24 473.499 287.55 475.115 287.55H636.265C637.88 287.55 639.19 286.24 639.19 284.625C639.19 283.01 637.88 281.7 636.265 281.7Z" fill="#DDE3E9"/>
<path d="M581.361 291.45H475.115C473.499 291.45 472.19 292.76 472.19 294.375C472.19 295.99 473.499 297.3 475.115 297.3H581.361C582.976 297.3 584.286 295.99 584.286 294.375C584.286 292.76 582.976 291.45 581.361 291.45Z" fill="#DDE3E9"/>
<path fill-rule="evenodd" clip-rule="evenodd" d="M664.144 296.5C668.01 296.5 671.144 293.366 671.144 289.5C671.144 285.634 668.01 282.5 664.144 282.5C660.278 282.5 657.144 285.634 657.144 289.5C657.144 293.366 660.278 296.5 664.144 296.5Z" fill="#DDE3E9"/>
<path fill-rule="evenodd" clip-rule="evenodd" d="M664.144 292.5C665.801 292.5 667.144 291.157 667.144 289.5C667.144 287.843 665.801 286.5 664.144 286.5C662.487 286.5 661.144 287.843 661.144 289.5C661.144 291.157 662.487 292.5 664.144 292.5Z" fill="#F2F2F2"/>
<path d="M684.19 317H467.19C464.98 317 463.19 318.791 463.19 321V352C463.19 354.209 464.98 356 467.19 356H684.19C686.399 356 688.19 354.209 688.19 352V321C688.19 318.791 686.399 317 684.19 317Z" fill="white"/>
<path d="M636.265 328.7H475.115C473.499 328.7 472.19 330.01 472.19 331.625C472.19 333.24 473.499 334.55 475.115 334.55H636.265C637.88 334.55 639.19 333.24 639.19 331.625C639.19 330.01 637.88 328.7 636.265 328.7Z" fill="#DDE3E9"/>
<path d="M581.361 338.45H475.115C473.499 338.45 472.19 339.76 472.19 341.375C472.19 342.99 473.499 344.3 475.115 344.3H581.361C582.976 344.3 584.286 342.99 584.286 341.375C584.286 339.76 582.976 338.45 581.361 338.45Z" fill="#DDE3E9"/>
<path fill-rule="evenodd" clip-rule="evenodd" d="M664.144 343.5C668.01 343.5 671.144 340.366 671.144 336.5C671.144 332.634 668.01 329.5 664.144 329.5C660.278 329.5 657.144 332.634 657.144 336.5C657.144 340.366 660.278 343.5 664.144 343.5Z" fill="#DDE3E9"/>
<path fill-rule="evenodd" clip-rule="evenodd" d="M664.144 339.5C665.801 339.5 667.144 338.157 667.144 336.5C667.144 334.843 665.801 333.5 664.144 333.5C662.487 333.5 661.144 334.843 661.144 336.5C661.144 338.157 662.487 339.5 664.144 339.5Z" fill="#AFB9C5"/>
<path d="M684.19 458H467.19C464.98 458 463.19 459.791 463.19 462V493C463.19 495.209 464.98 497 467.19 497H684.19C686.399 497 688.19 495.209 688.19 493V462C688.19 459.791 686.399 458 684.19 458Z" fill="white"/>
<path d="M636.265 469.7H475.115C473.499 469.7 472.19 471.01 472.19 472.625C472.19 474.24 473.499 475.55 475.115 475.55H636.265C637.88 475.55 639.19 474.24 639.19 472.625C639.19 471.01 637.88 469.7 636.265 469.7Z" fill="#DDE3E9"/>
<path d="M581.361 479.45H475.115C473.499 479.45 472.19 480.76 472.19 482.375C472.19 483.99 473.499 485.3 475.115 485.3H581.361C582.976 485.3 584.286 483.99 584.286 482.375C584.286 480.76 582.976 479.45 581.361 479.45Z" fill="#DDE3E9"/>
<path fill-rule="evenodd" clip-rule="evenodd" d="M664.144 484.5C668.01 484.5 671.144 481.366 671.144 477.5C671.144 473.634 668.01 470.5 664.144 470.5C660.278 470.5 657.144 473.634 657.144 477.5C657.144 481.366 660.278 484.5 664.144 484.5Z" fill="#DDE3E9"/>
<path fill-rule="evenodd" clip-rule="evenodd" d="M664.144 480.5C665.801 480.5 667.144 479.157 667.144 477.5C667.144 475.843 665.801 474.5 664.144 474.5C662.487 474.5 661.144 475.843 661.144 477.5C661.144 479.157 662.487 480.5 664.144 480.5Z" fill="#F2F2F2"/>
<path d="M684.19 411H467.19C464.98 411 463.19 412.791 463.19 415V446C463.19 448.209 464.98 450 467.19 450H684.19C686.399 450 688.19 448.209 688.19 446V415C688.19 412.791 686.399 411 684.19 411Z" fill="white"/>
<path d="M636.265 422.7H475.115C473.499 422.7 472.19 424.01 472.19 425.625C472.19 427.24 473.499 428.55 475.115 428.55H636.265C637.88 428.55 639.19 427.24 639.19 425.625C639.19 424.01 637.88 422.7 636.265 422.7Z" fill="#DDE3E9"/>
<path d="M581.361 432.45H475.115C473.499 432.45 472.19 433.76 472.19 435.375C472.19 436.99 473.499 438.3 475.115 438.3H581.361C582.976 438.3 584.286 436.99 584.286 435.375C584.286 433.76 582.976 432.45 581.361 432.45Z" fill="#DDE3E9"/>
<path fill-rule="evenodd" clip-rule="evenodd" d="M664.144 437.5C668.01 437.5 671.144 434.366 671.144 430.5C671.144 426.634 668.01 423.5 664.144 423.5C660.278 423.5 657.144 426.634 657.144 430.5C657.144 434.366 660.278 437.5 664.144 437.5Z" fill="#DDE3E9"/>
<path fill-rule="evenodd" clip-rule="evenodd" d="M664.144 433.5C665.801 433.5 667.144 432.157 667.144 430.5C667.144 428.843 665.801 427.5 664.144 427.5C662.487 427.5 661.144 428.843 661.144 430.5C661.144 432.157 662.487 433.5 664.144 433.5Z" fill="#F2F2F2"/>
<path d="M684.19 364H467.19C464.98 364 463.19 365.791 463.19 368V399C463.19 401.209 464.98 403 467.19 403H684.19C686.399 403 688.19 401.209 688.19 399V368C688.19 365.791 686.399 364 684.19 364Z" fill="white"/>
<path d="M636.265 375.7H475.115C473.499 375.7 472.19 377.01 472.19 378.625C472.19 380.24 473.499 381.55 475.115 381.55H636.265C637.88 381.55 639.19 380.24 639.19 378.625C639.19 377.01 637.88 375.7 636.265 375.7Z" fill="#DDE3E9"/>
<path d="M581.361 385.45H475.115C473.499 385.45 472.19 386.76 472.19 388.375C472.19 389.99 473.499 391.3 475.115 391.3H581.361C582.976 391.3 584.286 389.99 584.286 388.375C584.286 386.76 582.976 385.45 581.361 385.45Z" fill="#DDE3E9"/>
<path fill-rule="evenodd" clip-rule="evenodd" d="M664.144 390.5C668.01 390.5 671.144 387.366 671.144 383.5C671.144 379.634 668.01 376.5 664.144 376.5C660.278 376.5 657.144 379.634 657.144 383.5C657.144 387.366 660.278 390.5 664.144 390.5Z" fill="#DDE3E9"/>
<path fill-rule="evenodd" clip-rule="evenodd" d="M664.144 386.5C665.801 386.5 667.144 385.157 667.144 383.5C667.144 381.843 665.801 380.5 664.144 380.5C662.487 380.5 661.144 381.843 661.144 383.5C661.144 385.157 662.487 386.5 664.144 386.5Z" fill="#F2F2F2"/>
<path fill-rule="evenodd" clip-rule="evenodd" d="M865.176 341.376C861.231 338.701 855.985 338 851.265 338C832.829 338 815.501 344.84 800.531 355.032C792.328 360.616 784.99 367.728 778.512 375.132C774.772 379.407 771.438 384.03 769.077 389.173C767.484 392.644 766.391 396.261 765.65 399.991C764.747 404.537 764.029 409.175 763.705 413.797C763.577 415.617 762.52 425.274 765.546 425.438C765.528 425.676 765.524 425.903 765.543 426.106C758.972 436.38 754.913 448.42 751.148 459.835C747.873 469.769 744.953 479.786 743.059 490.063C740.564 503.592 738.927 517.326 738.148 531.05C737.981 533.999 737.866 536.95 737.767 539.903C737.683 542.422 737.598 544.941 737.515 547.461C737.423 550.284 736.925 553.534 737.374 556.34C737.765 558.784 739.88 558.414 739.974 555.982C740.087 553.045 740.068 550.102 740.197 547.163C740.368 543.262 740.545 539.361 740.736 535.461C742.065 508.369 747.049 481.675 756.25 456.084C759.974 445.728 764.24 435.925 769.724 426.345C774.545 417.922 780.345 409.767 786.273 402.173C792.034 394.792 798.026 387.583 805.085 381.33C810.814 376.256 817.115 371.835 823.593 367.722C831.82 362.498 840.033 357.401 848.945 353.391C853.578 351.307 858.297 349.441 862.966 347.44C863.806 347.081 864.707 346.732 865.515 346.315C868.21 344.925 867.323 342.832 865.176 341.376Z" fill="#C1DEE2"/>
<path fill-rule="evenodd" clip-rule="evenodd" d="M791.008 436C798.485 436 805.139 436.972 812.028 439.943C817.975 442.508 823.395 445.903 828.657 449.599C836.058 454.798 841.888 460.848 845.969 468.865C848.407 473.654 850.196 480.431 848.558 485.655C846.63 491.807 841.334 496.939 834.359 495.855C830.046 495.185 826.093 492.33 822.815 489.643C818.893 486.428 815.754 482.563 813.162 478.27C808.934 471.267 806.45 463.351 802.858 456.033C801.154 452.56 799.507 449.063 797.465 445.762C796.455 444.128 795.379 442.509 793.846 441.294C793.026 440.644 789.568 439.52 790.89 438.061C771.5 438.315 754.322 453.207 750.599 471.641C750.253 473.359 749.982 475.091 749.695 476.82C749.515 477.911 749.588 481.937 748.612 482.634C746.46 484.172 747.364 479.499 747.457 478.826C747.696 477.087 747.95 475.35 748.217 473.615C749.671 464.181 753.871 455.411 760.875 448.683C768.884 440.99 779.691 436 791.008 436Z" fill="#89C5CC"/>
<path fill-rule="evenodd" clip-rule="evenodd" d="M252.127 412.736C270.794 444.052 292.535 474.374 305.591 508.613C305.065 504.577 304.507 500.545 303.882 496.52C300.57 475.179 296.452 453.994 292.126 432.835C289.923 422.062 287.592 411.327 285.202 400.594C283.917 394.829 282.647 389.061 281.335 383.302C281.017 381.906 280.744 379.469 280.347 377C293.035 418.637 305.271 460.305 314.221 502.942C315.395 508.538 316.395 514.124 317.214 519.7C317.494 518.428 317.77 517.156 318.071 515.887C321.693 500.68 327.125 485.594 333.593 471.374C336.685 464.575 340.236 457.924 344.418 451.726C347.026 447.863 353.176 443.271 355.554 439.314C342.545 463.176 337.847 493.032 330.335 518.973C328.502 525.304 326.657 531.624 324.849 537.955C336.177 515.237 353.753 496.571 378.19 488.483C348.61 508.027 330.868 542.254 318.912 577.26C318.873 577.675 318.826 578.09 318.785 578.506C322.304 571.829 326.735 565.789 332.741 561.56C345.597 552.504 359.857 555.142 372.327 562.91C362.54 556.689 344.853 562.354 336.618 568.677C330.723 573.203 325.685 579.275 321.31 585.2C320.262 586.62 318.831 588.277 317.32 590.044C315.202 603.795 311.75 617.452 306.862 631C307.669 627.111 307.086 620.892 307.31 617.993C307.334 617.68 307.354 617.365 307.378 617.053C306.635 620.019 305.917 622.951 305.226 625.837C306.6 620.331 307.346 614.583 307.929 608.776C308.079 606.281 308.226 603.785 308.38 601.29C308.331 596.553 308.136 591.799 307.806 587.036C306.637 582.408 305.327 578.042 304.246 574.411C300.349 561.31 294.634 548.76 287.601 537.051C281.184 526.366 273.502 516.688 264.634 507.935C259.854 503.217 254.851 498.725 249.918 494.17C248.135 492.523 244.947 488.474 242.19 486.363C262.27 497.434 282.939 509.41 297.588 527.248C295.87 520.653 294.005 514.151 292.032 507.78C282.021 475.454 269.381 441.953 252.127 412.736Z" fill="#DDE3E9"/>
<path fill-rule="evenodd" clip-rule="evenodd" d="M272.19 590C272.19 625.899 275.032 655 313.19 655C351.347 655 354.19 625.899 354.19 590" fill="#C5CFD6"/>
<path d="M703.19 131C703.19 129.343 701.846 128 700.19 128C698.533 128 697.19 129.343 697.19 131V150C697.19 151.657 698.533 153 700.19 153C701.846 153 703.19 151.657 703.19 150V131Z" fill="#DDE3E9"/>
<path d="M717.19 115C717.19 113.343 715.846 112 714.19 112C712.533 112 711.19 113.343 711.19 115V150C711.19 151.657 712.533 153 714.19 153C715.846 153 717.19 151.657 717.19 150V115Z" fill="#DDE3E9"/>
<path d="M731.19 107C731.19 105.343 729.846 104 728.19 104C726.533 104 725.19 105.343 725.19 107V150C725.19 151.657 726.533 153 728.19 153C729.846 153 731.19 151.657 731.19 150V107Z" fill="#DDE3E9"/>
<path d="M745.19 115C745.19 113.343 743.846 112 742.19 112C740.533 112 739.19 113.343 739.19 115V150C739.19 151.657 740.533 153 742.19 153C743.846 153 745.19 151.657 745.19 150V115Z" fill="#DDE3E9"/>
<path d="M759.19 99C759.19 97.3431 757.846 96 756.19 96C754.533 96 753.19 97.3431 753.19 99V150C753.19 151.657 754.533 153 756.19 153C757.846 153 759.19 151.657 759.19 150V99Z" fill="#C5CFD6"/>
<path fill-rule="evenodd" clip-rule="evenodd" d="M205.19 402.256C205.19 391.117 214.192 382 225.19 382V402.256L211.522 417C207.634 413.395 205.19 408.107 205.19 402.256Z" fill="#F2F2F2"/>
<path fill-rule="evenodd" clip-rule="evenodd" d="M224.66 402H244.858C244.858 407.221 242.728 412.113 239.361 415.668C235.658 419.556 230.384 422 224.66 422C219.388 422 214.562 419.891 210.858 416.557L224.66 402Z" fill="#AFB9C5"/>
<path fill-rule="evenodd" clip-rule="evenodd" d="M245.19 402C245.19 391.002 236.188 382 225.19 382V402H245.19ZM215.19 382L223.19 400L205.19 392C206.97 387.334 210.967 383.78 215.19 382Z" fill="#C5CFD6"/>
<path fill-rule="evenodd" clip-rule="evenodd" d="M855.955 411.179C854.034 413.219 851.312 414.5 848.284 414.5C842.467 414.5 837.751 409.799 837.751 404C837.751 398.201 842.467 393.5 848.284 393.5V374C831.735 374 818.189 387.503 818.189 404C818.189 420.497 831.735 434 848.284 434C856.977 434 864.834 430.334 870.189 424.502L855.955 411.179Z" fill="#F2F2F2"/>
<path fill-rule="evenodd" clip-rule="evenodd" d="M848.189 374V393.5C853.988 393.5 858.689 398.201 858.689 404H878.189C878.189 387.503 864.686 374 848.189 374Z" fill="#AFB9C5"/>
<path fill-rule="evenodd" clip-rule="evenodd" d="M858.286 404C858.286 407.407 856.681 410.435 854.189 412.391L866.451 428C873.588 422.412 878.189 413.749 878.189 404H858.286Z" fill="#C5CFD6"/>
<path fill-rule="evenodd" clip-rule="evenodd" d="M665.241 135.504C663.763 137.068 661.669 138.05 659.34 138.05C654.865 138.05 651.238 134.446 651.238 130C651.238 125.554 654.865 121.95 659.34 121.95V107C646.61 107 636.19 117.352 636.19 130C636.19 142.648 646.61 153 659.34 153C666.027 153 672.07 150.189 676.19 145.718L665.241 135.504Z" fill="#F2F2F2"/>
<path fill-rule="evenodd" clip-rule="evenodd" d="M659.19 107V121.95C663.636 121.95 667.24 125.554 667.24 130H682.19C682.19 117.352 671.838 107 659.19 107Z" fill="#AFB9C5"/>
<path fill-rule="evenodd" clip-rule="evenodd" d="M667.263 130C667.263 132.555 666.059 134.827 664.19 136.293L673.386 148C678.74 143.809 682.19 137.312 682.19 130H667.263Z" fill="#C5CFD6"/>
<path fill-rule="evenodd" clip-rule="evenodd" d="M301.197 152.986C301.193 152.996 301.189 153.006 301.183 153.018C301.189 153.008 301.197 152.968 301.197 152.986Z" fill="#C5CFD6"/>
<path fill-rule="evenodd" clip-rule="evenodd" d="M301.188 153.001C301.188 153.003 301.186 153.007 301.186 153.011C301.186 153.001 301.204 152.971 301.188 153.001Z" fill="#C5CFD6"/>
<path fill-rule="evenodd" clip-rule="evenodd" d="M301.257 152.832C301.243 152.872 301.225 152.91 301.209 152.95C301.217 152.93 301.225 152.914 301.233 152.894C301.025 153.414 301.157 153.076 301.257 152.832Z" fill="#C5CFD6"/>
<path fill-rule="evenodd" clip-rule="evenodd" d="M301.212 152.953C301.204 152.971 301.196 152.991 301.188 153.009C301.13 153.121 301.212 152.953 301.212 152.953Z" fill="#C5CFD6"/>
<path fill-rule="evenodd" clip-rule="evenodd" d="M301.189 153.002C301.189 153 301.189 153 301.191 152.998C301.189 153 301.189 153 301.189 153.002Z" fill="#C5CFD6"/>
<path fill-rule="evenodd" clip-rule="evenodd" d="M301.18 153.016C301.168 153.04 301.236 152.924 301.18 153.016V153.016Z" fill="#C5CFD6"/>
<path fill-rule="evenodd" clip-rule="evenodd" d="M301.188 153.002L301.192 152.998C301.19 153 301.19 153.002 301.188 153.002Z" fill="#C5CFD6"/>
<path d="M344.19 101H257.19C254.98 101 253.19 102.791 253.19 105V160C253.19 162.209 254.98 164 257.19 164H344.19C346.399 164 348.19 162.209 348.19 160V105C348.19 102.791 346.399 101 344.19 101Z" fill="#DDE3E9"/>
<path fill-rule="evenodd" clip-rule="evenodd" d="M289.19 119L261.19 164H317.19L289.19 119Z" fill="#AFB9C5"/>
<path fill-rule="evenodd" clip-rule="evenodd" d="M316.69 131L292.19 164H341.19L316.69 131Z" fill="#C5CFD6"/>
<path fill-rule="evenodd" clip-rule="evenodd" d="M327.19 131C332.161 131 336.19 126.971 336.19 122C336.19 117.029 332.161 113 327.19 113C322.219 113 318.19 117.029 318.19 122C318.19 126.971 322.219 131 327.19 131Z" fill="white"/>
<path fill-rule="evenodd" clip-rule="evenodd" d="M778.182 579.986C778.186 579.996 778.19 580.006 778.196 580.018C778.19 580.008 778.182 579.968 778.182 579.986Z" fill="#C5CFD6"/>
<path fill-rule="evenodd" clip-rule="evenodd" d="M778.191 580.001C778.191 580.003 778.193 580.007 778.193 580.011C778.193 580.001 778.175 579.971 778.191 580.001Z" fill="#C5CFD6"/>
<path fill-rule="evenodd" clip-rule="evenodd" d="M778.122 579.832C778.136 579.872 778.154 579.91 778.17 579.95C778.162 579.93 778.154 579.914 778.146 579.894C778.354 580.414 778.222 580.076 778.122 579.832Z" fill="#C5CFD6"/>
<path fill-rule="evenodd" clip-rule="evenodd" d="M778.167 579.953C778.175 579.971 778.183 579.991 778.191 580.009C778.249 580.121 778.167 579.953 778.167 579.953Z" fill="#C5CFD6"/>
<path fill-rule="evenodd" clip-rule="evenodd" d="M778.19 580.002C778.19 580 778.19 580 778.188 579.998C778.19 580 778.19 580 778.19 580.002Z" fill="#C5CFD6"/>
<path fill-rule="evenodd" clip-rule="evenodd" d="M778.199 580.016C778.211 580.04 778.143 579.924 778.199 580.016V580.016Z" fill="#C5CFD6"/>
<path fill-rule="evenodd" clip-rule="evenodd" d="M778.192 580.002L778.188 579.998C778.19 580 778.19 580.002 778.192 580.002Z" fill="#C5CFD6"/>
<path d="M711.189 503H845.189C847.399 503 849.189 504.791 849.189 507V593C849.189 595.209 847.399 597 845.189 597H711.189C708.98 597 707.189 595.209 707.189 593V507C707.189 504.791 708.98 503 711.189 503Z" fill="#DDE3E9"/>
<path fill-rule="evenodd" clip-rule="evenodd" d="M796.463 530L837.518 597H755.408L796.463 530Z" fill="#AFB9C5"/>
<path fill-rule="evenodd" clip-rule="evenodd" d="M754.133 547.947L790.428 597H717.838L754.133 547.947Z" fill="#C5CFD6"/>
<path fill-rule="evenodd" clip-rule="evenodd" d="M738.689 548C731.233 548 725.189 541.956 725.189 534.5C725.189 527.044 731.233 521 738.689 521C746.145 521 752.189 527.044 752.189 534.5C752.189 541.956 746.145 548 738.689 548Z" fill="white"/>
<path fill-rule="evenodd" clip-rule="evenodd" d="M356.935 331.244C363.411 335.148 369.774 337.033 372.76 336.263C380.25 334.333 380.938 306.935 375.143 296.134C369.349 285.333 339.558 280.625 338.057 302.026C337.536 309.453 340.654 316.081 345.262 321.49L337 360H361L356.935 331.244Z" fill="#B28B67"/>
<path fill-rule="evenodd" clip-rule="evenodd" d="M361.464 283.685C358.301 283.166 349.784 282.81 348.213 282.81C347.21 282.81 346.122 283.039 345.527 282.118C345.041 281.363 345.219 280.087 345.074 279.211C344.905 278.193 344.665 277.189 344.423 276.187C343.733 273.337 342.69 270.625 341.231 268.079C338.493 263.302 334.481 259.56 329.417 257.383C323.824 254.979 317.496 254.428 311.48 254.916C305.043 255.438 299.216 257.563 293.138 259.562C287.346 261.468 281.28 262.218 275.222 261.288C269.119 260.35 264.507 257.042 259.359 253.902C254.089 250.688 248.066 248.586 241.835 249.069C236.02 249.52 230.659 251.922 225.85 255.129C221.351 258.131 217.638 261.742 215.542 266.824C213.287 272.291 213.289 278.292 216.997 283.123C222.372 290.126 232.35 291.938 240.651 291.757C245.453 291.654 250.168 290.777 254.701 289.183C260.747 287.056 265.971 283.452 271.627 280.528C274.281 279.156 277.025 278.029 279.901 277.217C282.691 276.429 285.44 276.067 287.967 277.753C290.639 279.537 293.034 281.288 296.092 282.405C299.026 283.476 302.133 284.075 305.258 284.051C311.339 284.004 317.333 282.109 323.239 280.84C328.054 279.806 333.207 278.774 338.117 279.769C340.166 280.184 343.159 281.041 343.899 283.17C331.444 285.427 326.553 300.83 330.064 312.137C331.959 318.24 343.35 325.374 347.779 322.166C350.585 320.133 348.881 317.465 347.779 315.703C345.668 312.33 344.945 307.997 348.852 305.648C352.222 303.622 355.765 308.433 355.832 308.427C356.758 308.354 364.76 303.828 370.274 297.224C375.713 297.547 376.539 293.96 375.24 291.027C373.941 288.094 365.834 284.402 361.464 283.685Z" fill="#191847"/>
<path fill-rule="evenodd" clip-rule="evenodd" d="M317.644 443C319.447 467.61 435.607 540.063 436.284 542.096C436.736 543.452 400.128 627.778 400.128 627.778L410.282 631.724C410.282 631.724 466.433 542.416 463.549 532.9C459.419 519.276 373.422 443.262 373.422 443.262L317.644 443Z" fill="#B28B67"/>
<path fill-rule="evenodd" clip-rule="evenodd" d="M402.8 615.082L419.379 621.117C454.336 581.674 468.038 549.131 465.54 532.549C463.042 515.968 375.724 443.06 375.724 443.06H316.455C318.477 500.052 426.143 542.313 427.583 544.742C429.023 547.171 414.851 570.957 402.8 615.082Z" fill="#2F3676"/>
<path fill-rule="evenodd" clip-rule="evenodd" d="M399.379 625.737C398.533 624.927 397.173 624.94 396.422 625.838C395.051 627.476 393.103 629.97 392.523 631.565C391.598 634.107 390.67 639.292 390.67 639.292C393.618 640.365 443.67 658.582 443.67 658.582C443.67 658.582 448.222 652.504 443.969 650.34C439.716 648.175 436.932 646.664 436.932 646.664L416.295 626.716C415.89 626.325 415.241 626.345 414.861 626.761L411.88 630.026C411.88 630.026 407.059 630.449 404.483 629.511C402.915 628.94 400.797 627.094 399.379 625.737Z" fill="#E4E4E4"/>
<path fill-rule="evenodd" clip-rule="evenodd" d="M331 443L279.254 567.227L228.396 672.25H240.395L371.674 443H331Z" fill="#997659"/>
<path fill-rule="evenodd" clip-rule="evenodd" d="M230.45 666.284C229.378 665.813 228.104 666.29 227.705 667.391C226.977 669.398 226 672.409 226 674.106C226 676.811 226.901 682 226.901 682C230.039 682 283.303 682 283.303 682C283.303 682 285.502 674.732 280.765 674.152C276.028 673.573 272.895 673.106 272.895 673.106L246.68 661.419C246.165 661.189 245.563 661.43 245.348 661.951L243.663 666.039C243.663 666.039 239.278 668.085 236.537 668.085C234.868 668.085 232.246 667.074 230.45 666.284Z" fill="#E4E4E4"/>
<path fill-rule="evenodd" clip-rule="evenodd" d="M232.989 650.433L259.651 655.433C280.266 625.125 366.541 500.852 376 443H316.644C285.055 484.821 252.639 619.624 232.989 650.433Z" fill="#5C63AB"/>
<path fill-rule="evenodd" clip-rule="evenodd" d="M457.235 399.704L421 415.617L432.57 430.439L459.707 409.633C473.262 407.143 479.549 405.004 478.566 403.216C477.738 401.709 476.197 401.624 474.778 401.545C473.672 401.484 472.64 401.427 472.076 400.705C470.789 399.056 473.966 393.961 477.188 389.255C480.41 384.549 477.39 384.719 475.623 385.282C469.711 388.572 463.582 393.379 457.235 399.704ZM295 424.066L274.508 420C260.611 456.63 252.326 476.702 249.652 480.218C247.692 482.796 235.603 489.437 227.42 492.984C224.135 494.407 224.841 497.183 225.804 498.071C231.88 503.672 237.529 501.709 243.678 499.572C245.458 498.953 247.281 498.32 249.167 497.851C254.05 496.639 255.536 499.15 256.94 501.523C258.184 503.624 259.363 505.616 262.779 504.821C262.624 504.151 262.433 503.4 262.227 502.589C260.895 497.349 258.931 489.62 261.845 485.13C263.34 482.826 274.392 462.471 295 424.066Z" fill="#B28B67"/>
<path fill-rule="evenodd" clip-rule="evenodd" d="M350.695 343.332L359.342 341.849C378.176 360.119 385.862 404.012 398.414 409.822C410.281 415.316 427.104 410 447.1 402.822L453.223 416.505C435.055 436.161 396.349 452.767 380.66 443.287C355.576 428.13 349.786 373.994 350.695 343.332Z" fill="#DB2721"/>
<path fill-rule="evenodd" clip-rule="evenodd" d="M313 452C313 452 365.008 452 389.511 452C393.008 452 392.349 446.952 391.843 444.404C386.011 415.004 363.241 383.312 363.241 341.461L341.172 338C322.917 367.358 316.605 403.505 313 452Z" fill="#DDE3E9"/>
<path fill-rule="evenodd" clip-rule="evenodd" d="M340 338H339.748C290.247 368.504 260.331 415.791 250 479.859L266.037 483C276.661 470.623 289.771 450.368 305.369 422.233C300.583 439.181 297.09 456.563 296 473H364.872C378.205 439.305 348.486 338 348.486 338H343.731H340Z" fill="#FF4133"/>
<defs>
<linearGradient id="paint0_linear" x1="0" y1="389" x2="954" y2="389" gradientUnits="userSpaceOnUse">
<stop stop-color="#428FC2"/>
<stop offset="1" stop-color="#4E4376"/>
</linearGradient>
</defs>
</svg>
